<!--?xml version="1.0" standalone="no"?-->

<svg version="1.0" xmlns="http://www.w3.org/2000/svg" width="300.000000pt" height="300.000000pt" viewBox="0 0 300.000000 300.000000" preserveAspectRatio="xMidYMid meet">
<g transform="translate(0.000000,300.000000) scale(0.100000,-0.100000)" fill="#292627" stroke="none">
<path d="M1754 2951 c-30 -13 -73 -71 -80 -109 -5 -22 0 -43 15 -72 23 -45 27
-84 11 -126 -10 -24 -8 -30 17 -51 21 -18 23 -22 6 -14 -36 18 -98 13 -118 -9
-17 -19 -33 -23 -199 -55 -132 -25 -152 -39 -267 -177 -145 -175 -154 -191
-186 -326 -6 -26 24 -64 69 -86 26 -13 29 -13 48 11 22 29 26 80 9 128 -10 27
-9 36 14 71 37 60 83 101 174 161 57 36 93 53 115 53 28 0 96 10 241 35 47 8
29 -11 -20 -21 -64 -13 -70 -26 -55 -126 16 -110 15 -201 -1 -241 -8 -18 -40
-57 -72 -87 -88 -84 -118 -119 -137 -158 -22 -43 -23 -110 -3 -136 19 -25 19
-36 1 -36 -23 0 -84 -78 -137 -175 -84 -156 -109 -187 -167 -216 -77 -38 -136
-101 -205 -222 -34 -59 -80 -132 -103 -161 -42 -53 -43 -54 -103 -58 -81 -6
-87 -13 -62 -79 33 -92 39 -112 57 -182 15 -61 53 -127 73 -127 4 0 8 33 8 73
0 150 77 307 204 418 34 30 96 85 138 122 42 38 136 112 210 164 73 53 160
121 192 151 58 53 129 155 129 185 0 8 -25 27 -55 42 -30 15 -63 37 -73 49
-37 40 -53 130 -33 181 6 14 10 0 12 -46 9 -133 68 -178 264 -202 102 -12 135
-12 220 -1 129 17 165 17 165 1 0 -7 -9 -19 -21 -27 -34 -24 -58 -83 -74 -183
-8 -53 -23 -121 -33 -154 -16 -52 -23 -62 -70 -92 -61 -40 -63 -51 -27 -147
36 -95 74 -161 112 -195 53 -46 67 -39 43 20 -56 142 -35 228 118 486 36 61
87 152 113 204 42 80 49 102 49 151 0 68 -20 92 -110 130 -14 6 -34 15 -45 20
-21 11 -80 30 -234 76 -114 34 -124 48 -96 127 10 29 36 88 57 131 21 44 38
91 38 105 1 15 7 37 15 51 8 14 15 43 16 65 2 36 3 37 6 8 5 -41 12 -46 110
-78 78 -25 82 -26 113 -10 45 23 112 86 192 183 44 52 76 82 89 82 31 0 89 62
89 94 0 44 -30 86 -60 86 -35 0 -76 -45 -84 -93 -6 -30 -17 -45 -54 -72 -26
-19 -67 -44 -92 -56 -25 -12 -63 -33 -85 -48 -22 -15 -45 -30 -51 -33 -5 -4
-39 13 -74 38 -35 24 -67 44 -71 44 -11 0 -94 56 -106 72 -7 9 -5 26 8 56 l19
43 43 -6 44 -7 12 45 c7 31 18 48 31 52 11 4 17 11 14 17 -4 5 -8 43 -9 84 -3
88 -21 129 -73 163 -39 26 -140 38 -178 22z" id="node1" class="node" stroke-width="20"></path>

</g>
<g transform="translate(0.000000,300.000000) scale(0.100000,-0.100000)" fill="#FFFFFF" stroke="none">






</g>
</svg>